<mxfile host="65bd71144e">
    <diagram id="TVOVAnE4ZY4R5skmmVqU" name="Page-1">
        <mxGraphModel dx="1220" dy="559" grid="1" gridSize="10" guides="1" tooltips="1" connect="1" arrows="1" fold="1" page="1" pageScale="1" pageWidth="850" pageHeight="1100" background="#FFFFFF" math="0" shadow="0">
            <root>
                <mxCell id="0"/>
                <mxCell id="1" parent="0"/>
                <mxCell id="47" style="edgeStyle=none;html=1;exitX=1;exitY=0.5;exitDx=0;exitDy=0;entryX=0;entryY=0.5;entryDx=0;entryDy=0;" edge="1" parent="1" source="3" target="9">
                    <mxGeometry relative="1" as="geometry"/>
                </mxCell>
                <mxCell id="3" value="" style="rounded=0;whiteSpace=wrap;html=1;" vertex="1" parent="1">
                    <mxGeometry x="80" y="80" width="250" height="190" as="geometry"/>
                </mxCell>
                <mxCell id="4" value="Select a course" style="text;html=1;align=center;verticalAlign=middle;whiteSpace=wrap;rounded=0;" vertex="1" parent="1">
                    <mxGeometry x="135" y="100" width="140" height="30" as="geometry"/>
                </mxCell>
                <mxCell id="5" value="CS9" style="rounded=1;whiteSpace=wrap;html=1;" vertex="1" parent="1">
                    <mxGeometry x="110" y="150" width="60" height="40" as="geometry"/>
                </mxCell>
                <mxCell id="6" value="CS10" style="rounded=1;whiteSpace=wrap;html=1;" vertex="1" parent="1">
                    <mxGeometry x="175" y="150" width="60" height="40" as="geometry"/>
                </mxCell>
                <mxCell id="7" value="CS61" style="rounded=1;whiteSpace=wrap;html=1;" vertex="1" parent="1">
                    <mxGeometry x="240" y="150" width="60" height="40" as="geometry"/>
                </mxCell>
                <mxCell id="48" style="edgeStyle=none;html=1;exitX=0.5;exitY=1;exitDx=0;exitDy=0;entryX=0.5;entryY=0;entryDx=0;entryDy=0;" edge="1" parent="1" source="9" target="20">
                    <mxGeometry relative="1" as="geometry"/>
                </mxCell>
                <mxCell id="9" value="" style="rounded=0;whiteSpace=wrap;html=1;" vertex="1" parent="1">
                    <mxGeometry x="425" y="65" width="345" height="219" as="geometry"/>
                </mxCell>
                <mxCell id="14" value="&lt;i&gt;How can I help you with your machine organization courseload?&lt;/i&gt;" style="rounded=0;whiteSpace=wrap;html=1;" vertex="1" parent="1">
                    <mxGeometry x="431.5" y="108" width="318.5" height="30" as="geometry"/>
                </mxCell>
                <mxCell id="15" value="&lt;i&gt;How do I add a value with another?&lt;/i&gt;" style="rounded=1;whiteSpace=wrap;html=1;" vertex="1" parent="1">
                    <mxGeometry x="570" y="138" width="200" height="26" as="geometry"/>
                </mxCell>
                <mxCell id="16" value="&lt;i&gt;That depends on whether the values are stored in memory or not. According to the course materials, ....&lt;/i&gt;" style="rounded=0;whiteSpace=wrap;html=1;" vertex="1" parent="1">
                    <mxGeometry x="431.5" y="164" width="298.5" height="50" as="geometry"/>
                </mxCell>
                <mxCell id="49" style="edgeStyle=none;html=1;exitX=0;exitY=0.5;exitDx=0;exitDy=0;entryX=1;entryY=0.5;entryDx=0;entryDy=0;" edge="1" parent="1" source="20" target="36">
                    <mxGeometry relative="1" as="geometry"/>
                </mxCell>
                <mxCell id="20" value="" style="rounded=0;whiteSpace=wrap;html=1;" vertex="1" parent="1">
                    <mxGeometry x="425" y="330" width="345" height="210" as="geometry"/>
                </mxCell>
                <mxCell id="22" value="&lt;i&gt;your message here&lt;/i&gt;" style="rounded=1;whiteSpace=wrap;html=1;" vertex="1" parent="1">
                    <mxGeometry x="433.75" y="250" width="250" height="30" as="geometry"/>
                </mxCell>
                <mxCell id="23" value="Request ULA assistance" style="rounded=0;whiteSpace=wrap;html=1;" vertex="1" parent="1">
                    <mxGeometry x="690" y="246" width="78.25" height="34" as="geometry"/>
                </mxCell>
                <mxCell id="25" value="&lt;i&gt;I think that I am more confused now&lt;/i&gt;" style="rounded=1;whiteSpace=wrap;html=1;" vertex="1" parent="1">
                    <mxGeometry x="570" y="376" width="200" height="26" as="geometry"/>
                </mxCell>
                <mxCell id="26" value="&lt;i&gt;Did that answer your question?&lt;/i&gt;" style="rounded=0;whiteSpace=wrap;html=1;" vertex="1" parent="1">
                    <mxGeometry x="433.75" y="340" width="318.5" height="30" as="geometry"/>
                </mxCell>
                <mxCell id="27" value="&lt;i&gt;I cannot find anything else in the course materials that might help. To get in-person help, there are ULA hours at ... later this week. Also, I see that some ULAs are online. Shall I notify one to join the conversation now?&amp;nbsp;&lt;/i&gt;" style="rounded=0;whiteSpace=wrap;html=1;" vertex="1" parent="1">
                    <mxGeometry x="434.37" y="410" width="326.25" height="68" as="geometry"/>
                </mxCell>
                <mxCell id="29" value="&lt;i&gt;sure!&lt;/i&gt;" style="rounded=1;whiteSpace=wrap;html=1;" vertex="1" parent="1">
                    <mxGeometry x="558.25" y="478" width="210" height="32" as="geometry"/>
                </mxCell>
                <mxCell id="33" value="" style="rounded=0;whiteSpace=wrap;html=1;" vertex="1" parent="1">
                    <mxGeometry y="330" width="345" height="250" as="geometry"/>
                </mxCell>
                <mxCell id="34" value="&lt;i&gt;Hey, it looks like the ai was a little loose with terms. When adding values...&lt;/i&gt;" style="rounded=1;whiteSpace=wrap;html=1;" vertex="1" parent="1">
                    <mxGeometry x="3.75" y="460" width="326.25" height="30" as="geometry"/>
                </mxCell>
                <mxCell id="35" value="&lt;i&gt;I cannot find anything else in the course materials that might help. To get in-person help, there are ULA hours at ... later this week. Also, I see that some ULAs are online. Shall I notify one to join the conversation now?&amp;nbsp;&lt;/i&gt;" style="rounded=0;whiteSpace=wrap;html=1;" vertex="1" parent="1">
                    <mxGeometry x="3.75" y="340" width="326.25" height="68" as="geometry"/>
                </mxCell>
                <mxCell id="36" value="&lt;i&gt;sure!&lt;/i&gt;" style="rounded=1;whiteSpace=wrap;html=1;" vertex="1" parent="1">
                    <mxGeometry x="135" y="419" width="210" height="32" as="geometry"/>
                </mxCell>
                <mxCell id="37" value="&lt;i&gt;Thank you!&lt;/i&gt;" style="rounded=1;whiteSpace=wrap;html=1;" vertex="1" parent="1">
                    <mxGeometry x="135" y="500" width="210" height="32" as="geometry"/>
                </mxCell>
                <mxCell id="42" value="This Conversation Has Been Closed" style="text;html=1;align=center;verticalAlign=middle;whiteSpace=wrap;rounded=0;" vertex="1" parent="1">
                    <mxGeometry x="51.879999999999995" y="540" width="230" height="30" as="geometry"/>
                </mxCell>
            </root>
        </mxGraphModel>
    </diagram>
</mxfile>